<?xml version="1.0" encoding="UTF-8" standalone="no"?>
<svg width="80px" height="52px" viewBox="0 0 80 52" version="1.1" xmlns="http://www.w3.org/2000/svg" xmlns:xlink="http://www.w3.org/1999/xlink">
    <title>logo</title>
    <g id="logo" transform="translate(-1.000000, 0.000000)">
        <path d="M51.272,24.784 L51.272,9.376 L60.056,9.376 C61.3520065,9.376 62.599994,9.47199904 63.8,9.664 C65.000006,9.85600096 66.0559954,10.2279972 66.968,10.78 C67.8800046,11.3320028 68.6119972,12.111995 69.164,13.12 C69.7160028,14.128005 69.992,15.4479918 69.992,17.08 C69.992,18.7120082 69.7160028,20.031995 69.164,21.04 C68.6119972,22.048005 67.8800046,22.8279972 66.968,23.38 C66.0559954,23.9320028 65.000006,24.303999 63.8,24.496 C62.599994,24.688001 61.3520065,24.784 60.056,24.784 L51.272,24.784 Z M39.968,0.592 L39.968,52 L51.272,52 L51.272,33.568 L63.152,33.568 C66.3680161,33.568 69.1039887,33.1000047 71.36,32.164 C73.6160113,31.2279953 75.4519929,29.9920077 76.868,28.456 C78.2840071,26.9199923 79.3159968,25.15601 79.964,23.164 C80.6120032,21.17199 80.936,19.1440103 80.936,17.08 C80.936,14.9679894 80.6120032,12.9280098 79.964,10.96 C79.3159968,8.99199016 78.2840071,7.24000768 76.868,5.704 C75.4519929,4.16799232 73.6160113,2.93200468 71.36,1.996 C69.1039887,1.05999532 66.3680161,0.592 63.152,0.592 L39.968,0.592 Z" id="P" fill="#5EDD8B"></path>
        <path d="M19.3279939,32.128 L26.0239939,13.264 L26.1679939,13.264 L32.6479939,32.128 L19.3279939,32.128 Z M20.4079939,0.592 L0.967993896,52 L12.3439939,52 L16.3759939,40.552 L35.5999939,40.552 L39.4879939,52 L51.2239939,52 L31.9999939,0.592 L20.4079939,0.592 Z" id="A" fill="#00A5BF"></path>
    </g>
</svg>