<?xml version="1.0" encoding="UTF-8" standalone="no"?>
<svg width="25px" height="9px" viewBox="0 0 25 9" version="1.1" xmlns="http://www.w3.org/2000/svg" xmlns:xlink="http://www.w3.org/1999/xlink">
    <!-- Generator: Sketch 3.6.1 (26313) - http://www.bohemiancoding.com/sketch -->
    <title>sunglasses</title>
    <desc>Created with Sketch.</desc>
    <defs></defs>
    <g id="Page-1" stroke="none" stroke-width="1" fill="none" fill-rule="evenodd">
        <path d="M12.9685812,1.30493474 L12.3148302,1.20725375 C12.3148302,1.20725375 10.7433516,0.735570868 9.08855516,0.539809913 C7.43375877,0.344048959 7.04383319,0.306640625 4.70181386,0.306640625 C2.35979454,0.306640625 1.03022195,0.736934284 1.03022195,0.736934284 C1.03022195,0.736934284 0.981422049,0.7733441 0.973448223,0.810716267 C0.962497473,0.862040847 0.973448223,1.00302453 0.973448223,1.00302453 L1.17516092,2.35598346 C1.17516092,2.35598346 1.36425659,2.39215766 1.52594533,2.50372098 C1.64518225,2.58599305 1.74010432,2.73700473 1.78168743,2.80208135 C1.87965845,2.95540377 1.99290219,3.34504385 2.37879866,4.9666421 C2.76469513,6.58824035 3.41161625,7.27729161 3.76527514,7.53727493 C4.11893403,7.79725825 4.85501832,8.02240068 6.39764967,8.12158658 C7.94028102,8.22077247 9.50959624,7.5209175 9.50959624,7.5209175 C9.50959624,7.5209175 10.2803913,7.18877926 11.0148268,6.08740799 C11.7492623,4.98603671 12.0814439,3.64229781 12.3263281,3.07516797 C12.5509234,2.55502543 12.9071257,2.55555482 12.9646074,2.55921295 L12.9646074,2.5598994 C12.9646074,2.5598994 12.9659688,2.55972349 12.9685812,2.55950419 C12.9711937,2.55972349 12.972555,2.5598994 12.972555,2.5598994 L12.972555,2.55921295 C13.0300368,2.55555482 13.3862391,2.55502543 13.6108343,3.07516797 C13.8557185,3.64229781 14.1879001,4.98603671 14.9223357,6.08740799 C15.6567712,7.18877926 16.4275662,7.5209175 16.4275662,7.5209175 C16.4275662,7.5209175 17.9968814,8.22077247 19.5395128,8.12158658 C21.0821441,8.02240068 21.8182284,7.79725825 22.1718873,7.53727493 C22.5255462,7.27729161 23.1724673,6.58824035 23.5583638,4.9666421 C23.9442603,3.34504385 24.057504,2.95540377 24.155475,2.80208135 C24.1970581,2.73700473 24.2919802,2.58599305 24.4112171,2.50372098 C24.5729059,2.39215766 24.7620015,2.35598346 24.7620015,2.35598346 L24.9637142,1.00302453 C24.9637142,1.00302453 24.974665,0.862040847 24.9637142,0.810716267 C24.9557404,0.7733441 24.9069405,0.736934284 24.9069405,0.736934284 C24.9069405,0.736934284 23.5773679,0.306640625 21.2353486,0.306640625 C18.8933293,0.306640625 18.5034037,0.344048959 16.8486073,0.539809913 C15.1938109,0.735570868 13.6223323,1.20725375 13.6223323,1.20725375 L12.9685812,1.30493474 Z" id="sunglasses" fill="#000000"></path>
    </g>
</svg>