<svg width="80" height="52" viewBox="0 0 80 52" xmlns="http://www.w3.org/2000/svg"><title>logo</title><path d="M50.272 24.784V9.376h8.784c1.296 0 2.544.096 3.744.288 1.2.192 2.256.564 3.168 1.116.912.552 1.644 1.332 2.196 2.34.552 1.008.828 2.328.828 3.96 0 1.632-.276 2.952-.828 3.96-.552 1.008-1.284 1.788-2.196 2.34-.912.552-1.968.924-3.168 1.116-1.2.192-2.448.288-3.744.288h-8.784zM38.968.592V52h11.304V33.568h11.88c3.216 0 5.952-.468 8.208-1.404 2.256-.936 4.092-2.172 5.508-3.708a14.196 14.196 0 0 0 3.096-5.292c.648-1.992.972-4.02.972-6.084 0-2.112-.324-4.152-.972-6.12a14.244 14.244 0 0 0-3.096-5.256c-1.416-1.536-3.252-2.772-5.508-3.708C68.104 1.06 65.368.592 62.152.592H38.968z" fill="#5EDD8B"/><path d="M18.328 32.128l6.696-18.864h.144l6.48 18.864h-13.32zM19.408.592L-.032 52h11.376l4.032-11.448H34.6L38.488 52h11.736L31 .592H19.408z" fill="#00A5BF"/></svg>