<svg width="84" height="51" viewBox="0 0 84 51" xmlns="http://www.w3.org/2000/svg"><g fill="none" fill-rule="evenodd"><path d="M77.788 4.5c3.528 3 5.292 7.608 5.292 13.824s-1.812 10.764-5.436 13.644c-3.624 2.88-9.156 4.32-16.596 4.32h-6.696v14.04H43.12V0h17.784c7.728 0 13.356 1.5 16.884 4.5zm-8.244 19.8c1.344-1.512 2.016-3.72 2.016-6.624 0-2.904-.876-4.968-2.628-6.192-1.752-1.224-4.476-1.836-8.172-1.836h-6.408v16.92h7.56c3.744 0 6.288-.756 7.632-2.268z" fill="#00A5BF"/><path d="M42.408 50.328l-4.68-10.872H16.632l-4.68 10.872H0L21.744 0h10.872L54.36 50.328H42.408zM27.216 14.976L20.88 29.592h12.6l-6.264-14.616z" fill="#8200BF"/></g></svg>