<svg width="25" height="9" xmlns="http://www.w3.org/2000/svg"><path d="M12.969 1.305l-.654-.098S10.743.736 9.089.54C7.434.344 7.044.307 4.702.307c-2.342 0-3.672.43-3.672.43S.981.773.973.81c-.01.051 0 .192 0 .192l.202 1.353s.19.036.35.148c.12.082.215.233.257.298.098.153.21.543.597 2.165.386 1.621 1.033 2.31 1.386 2.57.354.26 1.09.485 2.633.585C7.94 8.22 9.51 7.52 9.51 7.52s.77-.332 1.505-1.434c.734-1.101 1.066-2.445 1.311-3.012.225-.52.581-.52.639-.516h.004a.1.1 0 0 1 .004 0c.057-.003.413-.004.638.516.245.567.577 1.911 1.311 3.012.735 1.102 1.506 1.434 1.506 1.434s1.569.7 3.112.6c1.542-.099 2.278-.324 2.632-.584.354-.26 1-.949 1.386-2.57.386-1.622.5-2.012.597-2.165.042-.065.137-.216.256-.298.162-.112.351-.148.351-.148l.202-1.353s.01-.141 0-.192c-.008-.038-.057-.074-.057-.074s-1.33-.43-3.672-.43-2.732.037-4.386.233c-1.655.196-3.227.667-3.227.667l-.653.098zM4.026 2.658l1 3 .158.474.948-.316-.158-.474-1-3-.158-.474-.948.316.158.474zm12 0l1 3 .158.474.948-.316-.158-.474-1-3-.158-.474-.948.316.158.474z" fill-rule="evenodd"/></svg>